<?xml version="1.0" standalone="no"?>
<!DOCTYPE svg PUBLIC "-//W3C//DTD SVG 20010904//EN"
 "http://www.w3.org/TR/2001/REC-SVG-20010904/DTD/svg10.dtd">
<svg version="1.0" xmlns="http://www.w3.org/2000/svg"
 width="840.000000pt" height="840.000000pt" viewBox="0 0 840.000000 840.000000"
 preserveAspectRatio="xMidYMid meet">
<metadata>
Created by potrace 1.14, written by Peter Selinger 2001-2017
</metadata>
<g transform="translate(0.000000,840.000000) scale(0.100000,-0.100000)"
fill="#000000" stroke="none">
<path d="M757 7044 c-3 -3 -29 -7 -58 -10 -29 -3 -71 -9 -94 -15 -22 -5 -50
-12 -63 -15 -74 -16 -242 -103 -289 -149 -8 -8 -22 -20 -31 -27 -55 -41 -158
-200 -182 -283 -40 -137 -49 -301 -24 -418 8 -34 16 -76 19 -94 5 -27 58 -169
97 -263 6 -14 12 -30 13 -36 2 -6 16 -39 32 -75 61 -130 113 -254 113 -266 0
-7 5 -13 10 -13 6 0 10 -6 10 -12 0 -11 42 -115 115 -283 7 -16 39 -91 70
-165 31 -74 63 -150 71 -167 8 -18 20 -48 28 -65 7 -18 23 -54 35 -80 11 -26
21 -50 21 -53 0 -5 21 -54 61 -143 10 -23 19 -49 19 -57 0 -8 5 -15 10 -15 6
0 10 -5 10 -12 0 -7 16 -51 36 -98 20 -47 45 -105 55 -130 11 -25 26 -58 34
-73 8 -16 15 -33 15 -38 0 -4 12 -34 26 -66 14 -32 32 -71 39 -88 7 -16 43
-102 80 -190 37 -88 75 -178 85 -200 10 -22 30 -69 45 -105 14 -36 35 -83 45
-105 93 -200 163 -385 167 -443 6 -61 5 -63 -30 -95 -19 -19 -41 -35 -48 -36
-8 -1 -108 -3 -224 -5 -260 -4 -344 -12 -464 -42 -110 -28 -233 -84 -275 -126
-9 -10 -25 -23 -34 -30 -49 -36 -118 -150 -145 -238 -23 -78 -28 -122 -28
-231 0 -213 71 -370 221 -490 54 -43 171 -99 240 -115 78 -18 110 -24 155 -31
68 -11 5705 -10 5780 0 94 14 120 19 190 42 138 46 252 125 328 228 31 41 85
151 90 182 1 11 5 25 8 30 13 25 18 251 7 300 -53 230 -193 379 -430 459 -125
42 -220 55 -435 61 -264 7 -334 20 -367 67 -26 36 -20 103 16 188 13 30 37 92
43 110 1 3 16 37 34 75 18 39 47 113 63 165 17 52 33 100 37 105 3 6 6 13 6
16 1 26 68 86 108 96 41 9 136 0 162 -16 6 -3 12 -6 15 -6 5 0 108 -40 145
-56 24 -10 148 -47 181 -54 13 -3 34 -7 47 -10 53 -12 74 -15 141 -21 245 -23
454 5 662 92 104 43 135 60 244 135 69 48 250 209 234 209 -3 0 7 12 21 28 83
87 203 307 253 464 32 100 36 114 59 243 17 93 4 436 -17 463 -3 3 -6 12 -15
57 -4 22 -12 45 -17 51 -5 7 -8 16 -7 20 1 5 -3 22 -9 37 -40 96 -59 137 -84
180 -15 26 -28 52 -28 57 0 6 -4 10 -10 10 -5 0 -10 6 -10 14 0 8 -6 21 -13
28 -7 7 -26 31 -42 53 -141 190 -334 345 -580 467 -60 30 -122 58 -136 61 -15
4 -49 28 -77 54 -60 58 -69 83 -87 266 -4 32 -8 68 -11 80 -2 12 -7 38 -10 57
-3 19 -13 60 -22 90 -9 30 -17 57 -17 60 -4 14 -29 71 -53 120 -62 128 -245
265 -397 296 -11 2 -44 9 -73 15 -29 6 -74 13 -100 16 -56 7 -5808 14 -5815 7z
m6513 -1437 c143 -34 286 -107 384 -196 176 -160 278 -343 323 -578 9 -46 9
-307 0 -345 -4 -16 -9 -38 -11 -50 -2 -13 -9 -35 -15 -50 -6 -16 -8 -28 -5
-28 4 0 2 -6 -3 -12 -6 -7 -16 -31 -23 -52 -22 -69 -110 -216 -161 -271 -58
-62 -127 -124 -184 -166 -91 -66 -242 -135 -336 -154 -161 -33 -310 -37 -439
-12 -74 14 -187 71 -230 116 -38 39 -78 110 -90 161 -16 69 -16 210 1 241 7
13 11 25 10 27 -4 4 10 65 17 77 4 6 8 17 9 26 1 9 16 46 33 83 16 37 30 74
30 82 0 8 5 14 10 14 6 0 10 6 10 13 0 10 66 170 100 242 18 37 101 230 104
240 4 12 18 46 47 110 12 28 23 55 24 60 2 6 12 32 24 57 11 26 21 54 21 62 0
9 4 16 8 16 5 0 9 6 9 13 2 21 40 118 52 130 6 6 11 19 11 29 0 10 5 18 10 18
6 0 10 5 10 11 0 11 65 73 78 75 4 0 14 3 22 7 8 3 22 7 30 10 16 4 94 0 120
-6z"/>
</g>
</svg>
